<svg aria-hidden="true" style="position: absolute; width: 0; height: 0; overflow: hidden;" version="1.1" xmlns="http://www.w3.org/2000/svg" xmlns:xlink="http://www.w3.org/1999/xlink">
<defs>
<symbol id="icon-play" viewBox="0 0 22 28">
<path d="M21.625 14.484l-20.75 11.531c-0.484 0.266-0.875 0.031-0.875-0.516v-23c0-0.547 0.391-0.781 0.875-0.516l20.75 11.531c0.484 0.266 0.484 0.703 0 0.969z"></path>
</symbol>
<symbol id="icon-controller-paus" viewBox="0 0 20 20">
<path d="M15 3h-2c-0.553 0-1 0.048-1 0.6v12.8c0 0.552 0.447 0.6 1 0.6h2c0.553 0 1-0.048 1-0.6v-12.8c0-0.552-0.447-0.6-1-0.6zM7 3h-2c-0.553 0-1 0.048-1 0.6v12.8c0 0.552 0.447 0.6 1 0.6h2c0.553 0 1-0.048 1-0.6v-12.8c0-0.552-0.447-0.6-1-0.6z"></path>
</symbol>
<symbol id="icon-adjust" viewBox="0 0 20 20">
<path d="M19 9.199c-0.182 0-0.799 0-0.98 0-0.553 0-1 0.359-1 0.801s0.447 0.799 1 0.799c0.182 0 0.799 0 0.98 0 0.552 0 1-0.357 1-0.799 0-0.441-0.449-0.801-1-0.801zM10 4.5c-3.051 0-5.5 2.449-5.5 5.5s2.449 5.5 5.5 5.5c3.050 0 5.5-2.449 5.5-5.5s-2.451-5.5-5.5-5.5zM10 14c-2.211 0-4-1.791-4-4 0-2.211 1.789-4 4-4v8zM3 10c0-0.441-0.449-0.801-1-0.801-0.185 0-0.816 0-1 0-0.553 0-1 0.359-1 0.801s0.447 0.799 1 0.799c0.184 0 0.815 0 1 0 0.551 0 1-0.358 1-0.799zM10 3c0.441 0 0.799-0.447 0.799-1 0-0.184 0-0.816 0-1 0-0.553-0.358-1-0.799-1s-0.801 0.447-0.801 1c0 0.184 0 0.816 0 1 0 0.553 0.359 1 0.801 1zM10 17c-0.442 0-0.801 0.447-0.801 1 0 0.184 0 0.816 0 1 0 0.553 0.359 1 0.801 1s0.799-0.447 0.799-1c0-0.184 0-0.816 0-1 0-0.553-0.358-1-0.799-1zM17.365 3.766c0.391-0.391 0.454-0.961 0.142-1.273s-0.883-0.248-1.272 0.143c-0.108 0.107-0.593 0.592-0.7 0.699-0.391 0.391-0.454 0.961-0.142 1.273s0.883 0.248 1.273-0.143c0.107-0.108 0.591-0.592 0.699-0.699zM3.334 15.533c-0.108 0.109-0.593 0.594-0.7 0.701-0.391 0.391-0.454 0.959-0.142 1.271s0.883 0.25 1.272-0.141c0.108-0.107 0.593-0.592 0.7-0.699 0.391-0.391 0.454-0.961 0.142-1.274s-0.883-0.247-1.272 0.142zM3.765 2.635c-0.39-0.391-0.961-0.455-1.273-0.143s-0.248 0.883 0.141 1.274c0.108 0.107 0.593 0.592 0.7 0.699 0.391 0.391 0.96 0.455 1.272 0.143s0.249-0.883-0.141-1.273c-0.107-0.108-0.591-0.593-0.699-0.7zM15.534 16.666c0.108 0.107 0.593 0.592 0.7 0.699 0.391 0.391 0.96 0.453 1.272 0.143 0.312-0.312 0.249-0.883-0.142-1.273-0.107-0.107-0.592-0.592-0.699-0.699-0.391-0.391-0.961-0.455-1.274-0.143s-0.248 0.882 0.143 1.273z"></path>
</symbol>
<symbol id="icon-air" viewBox="0 0 20 20">
<path d="M2.643 6.357c1.747-1.5 3.127-2.686 6.872-0.57 1.799 1.016 3.25 1.4 4.457 1.398 2.115 0 3.486-1.176 4.671-2.193 0.423-0.363 0.477-1.008 0.122-1.439-0.357-0.432-0.987-0.488-1.41-0.125-1.746 1.502-3.127 2.688-6.872 0.57-4.948-2.793-7.266-0.803-9.128 0.797-0.422 0.363-0.476 1.006-0.121 1.439 0.356 0.43 0.986 0.487 1.409 0.123zM17.355 8.535c-1.746 1.5-3.127 2.688-6.872 0.57-4.948-2.795-7.266-0.804-9.128 0.795-0.422 0.363-0.477 1.008-0.121 1.439s0.986 0.488 1.409 0.125c1.747-1.501 3.127-2.687 6.872-0.572 1.799 1.018 3.25 1.4 4.457 1.4 2.115 0 3.486-1.176 4.671-2.195 0.423-0.363 0.477-1.008 0.122-1.438-0.356-0.433-0.987-0.487-1.41-0.124zM17.355 13.641c-1.746 1.502-3.127 2.688-6.872 0.572-4.948-2.795-7.266-0.805-9.128 0.795-0.422 0.363-0.477 1.008-0.121 1.439s0.986 0.486 1.409 0.123c1.747-1.5 3.127-2.685 6.872-0.57 1.799 1.016 3.25 1.4 4.457 1.4 2.115 0 3.486-1.178 4.671-2.195 0.423-0.363 0.477-1.008 0.122-1.439s-0.987-0.487-1.41-0.125z"></path>
</symbol>
<symbol id="icon-water" viewBox="0 0 20 20">
<path d="M9.882 9.093c-0.511 4.115-3.121 4.847-3.121 7.708 0 1.766 1.483 3.199 3.239 3.199s3.238-1.434 3.238-3.199c0-2.861-2.61-3.593-3.121-7.708-0.016-0.123-0.219-0.123-0.235 0zM3.883 0.093c-0.511 4.115-3.121 4.846-3.121 7.708 0 1.765 1.482 3.199 3.238 3.199s3.238-1.434 3.238-3.199c0-2.861-2.61-3.593-3.121-7.708-0.015-0.123-0.219-0.123-0.234 0zM15.883 0.093c-0.511 4.115-3.121 4.847-3.121 7.708 0 1.765 1.482 3.199 3.238 3.199s3.238-1.434 3.238-3.199c0-2.861-2.61-3.593-3.121-7.708-0.016-0.123-0.219-0.123-0.234 0z"></path>
</symbol>
<symbol id="icon-headphones" viewBox="0 0 32 32">
<path d="M9 18h-2v14h2c0.55 0 1-0.45 1-1v-12c0-0.55-0.45-1-1-1z"></path>
<path d="M23 18c-0.55 0-1 0.45-1 1v12c0 0.55 0.45 1 1 1h2v-14h-2z"></path>
<path d="M32 16c0-8.837-7.163-16-16-16s-16 7.163-16 16c0 1.919 0.338 3.759 0.958 5.464-0.609 1.038-0.958 2.246-0.958 3.536 0 3.526 2.608 6.443 6 6.929v-13.857c-0.997 0.143-1.927 0.495-2.742 1.012-0.168-0.835-0.258-1.699-0.258-2.584 0-7.18 5.82-13 13-13s13 5.82 13 13c0 0.885-0.088 1.749-0.257 2.584-0.816-0.517-1.745-0.87-2.743-1.013v13.858c3.392-0.485 6-3.402 6-6.929 0-1.29-0.349-2.498-0.958-3.536 0.62-1.705 0.958-3.545 0.958-5.465z"></path>
</symbol>
</defs>
</svg>
